<?xml version="1.0" encoding="UTF-8" standalone="no"?>
<!-- Created with Inkscape (http://www.inkscape.org/) -->

<svg
   xmlns:dc="http://purl.org/dc/elements/1.1/"
   xmlns:cc="http://creativecommons.org/ns#"
   xmlns:rdf="http://www.w3.org/1999/02/22-rdf-syntax-ns#"
   xmlns:svg="http://www.w3.org/2000/svg"
   xmlns="http://www.w3.org/2000/svg"
   xmlns:sodipodi="http://sodipodi.sourceforge.net/DTD/sodipodi-0.dtd"
   xmlns:inkscape="http://www.inkscape.org/namespaces/inkscape"
   width="39.376041"
   height="32"
   id="svg2"
   version="1.1"
   inkscape:version="0.48.2 r9819"
   sodipodi:docname="twitter.svg">
  <defs
     id="defs4" />
  <sodipodi:namedview
     id="base"
     pagecolor="#ffffff"
     bordercolor="#666666"
     borderopacity="1.0"
     inkscape:pageopacity="0.0"
     inkscape:pageshadow="2"
     inkscape:zoom="3.7200571"
     inkscape:cx="96.724308"
     inkscape:cy="71.686191"
     inkscape:document-units="px"
     inkscape:current-layer="layer1"
     showgrid="false"
     inkscape:window-width="1276"
     inkscape:window-height="756"
     inkscape:window-x="8"
     inkscape:window-y="0"
     inkscape:window-maximized="0"
     fit-margin-top="0"
     fit-margin-left="0"
     fit-margin-right="0"
     fit-margin-bottom="0" />
  <metadata
     id="metadata7">
    <rdf:RDF>
      <cc:Work
         rdf:about="">
        <dc:format>image/svg+xml</dc:format>
        <dc:type
           rdf:resource="http://purl.org/dc/dcmitype/StillImage" />
      </cc:Work>
    </rdf:RDF>
  </metadata>
  <g
     inkscape:label="Layer 1"
     inkscape:groupmode="layer"
     id="layer1"
     transform="translate(-282.32053,-503.68573)">
    <path
       style="fill:#000000;fill-opacity:1"
       inkscape:connector-curvature="0"
       id="path5"
       d="m 321.69657,507.47371 c -1.44863,0.64263 -3.00577,1.07674 -4.63967,1.27205 1.66777,-0.99976 2.94888,-2.58288 3.55191,-4.46939 -1.56107,0.92594 -3.28987,1.59808 -5.1301,1.96033 -1.47346,-1.57011 -3.57299,-2.55097 -5.89659,-2.55097 -4.46131,0 -8.07859,3.61689 -8.07859,8.0782 0,0.63317 0.0715,1.24981 0.20928,1.84104 -6.71403,-0.33686 -12.66651,-3.5531 -16.65099,-8.44066 -0.69537,1.19308 -1.09387,2.5807 -1.09387,4.06124 0,2.8028 1.42621,5.27542 3.59387,6.72406 -1.32422,-0.0419 -2.56988,-0.40537 -3.65902,-1.01038 -9.3e-4,0.0336 -9.3e-4,0.0675 -9.3e-4,0.1016 0,3.914 2.78469,7.17886 6.48034,7.9215 -0.67788,0.18467 -1.39156,0.28331 -2.12829,0.28331 -0.52054,0 -1.02653,-0.0507 -1.51992,-0.14496 1.02811,3.20936 4.01144,5.54494 7.54664,5.60992 -2.7648,2.16686 -6.24802,3.4584 -10.03304,3.4584 -0.65208,0 -1.29509,-0.0384 -1.92707,-0.11296 3.57515,2.29228 7.82147,3.62969 12.38359,3.62969 14.85916,0 22.98502,-12.30956 22.98502,-22.98522 0,-0.35024 -0.008,-0.69853 -0.0234,-1.04523 1.57819,-1.13877 2.94769,-2.56142 4.03073,-4.18155 z" />
  </g>
</svg>
